<?xml version="1.0" encoding="UTF-8"?>
<svg xmlns="http://www.w3.org/2000/svg" viewBox="0 0 1500 1100" fill="#e0001a">
  <!-- Approximated Keysight wavelength mark — simplified Bézier-based wave blob. -->
  <path d="M7 620
           C 120 560, 220 240, 360 230
           C 500 220, 540 720, 680 710
           C 820 700, 820 120, 960 130
           C 1100 140, 1080 680, 1230 670
           C 1350 660, 1390 380, 1500 380
           L 1500 900
           C 1390 880, 1340 980, 1220 950
           C 1100 920, 1120 560, 980 610
           C 840 660, 860 1040, 720 1050
           C 580 1060, 560 740, 410 790
           C 260 840, 280 1080, 120 1010
           C 60 985, 30 900, 7 820
           Z" />
</svg>
